#N canvas 3 5 1920 976 12;
#X msg 95 16 listen 12345;
#X obj 51 77 print;
#X obj 95 45 netreceive -f 12345;
#X obj 161 180 nbx 5 14 -1e+37 1e+37 0 0 empty empty empty 0 -8 0 10
#fcfcfc #000000 #000000 0 256;
#X obj 4 137 nbx 5 14 -1e+37 1e+37 0 0 empty empty empty 0 -8 0 10
#fcfcfc #000000 #000000 0 256;
#X obj 75 106 int;
#X obj 125 122 int;
#X obj 125 158 s y;
#X obj 75 143 s x;
#X msg 476 268 \; seq const 0;
#X obj 398 110 nbx 5 14 -1e+37 1e+37 0 0 empty empty empty 0 -8 0 10
#fcfcfc #000000 #000000 0 256;
#X obj 363 110 s n;
#X obj 43 394 mtof;
#X obj 158 810 output~;
#X obj 44 420 nbx 5 14 -1e+37 1e+37 0 0 empty empty empty 0 -8 0 10
#fcfcfc #000000 #000000 0 256;
#X obj 481 378 tabwrite seq;
#X obj 479 354 r n;
#X obj 556 347 r x;
#N canvas 0 50 450 250 (subpatch) 0;
#X array seq 8 float 3;
#A 0 55 55 52 55 64 59 60 67;
#X coords 0 46 8 72 272 185 1;
#X restore 474 38 graph;
#X obj 26 219 tgl 15 0 empty empty empty 17 7 0 10 #fcfcfc #000000
#000000 0 1;
#X obj 30 257 metro 250;
#X obj 39 365 tabread seq;
#X obj 31 299 f;
#X obj 80 301 + 1;
#X obj 35 325 % 8;
#X msg 476 309 \; seq resize 8;
#X obj 88 466 phasor~;
#X obj 167 760 vcf~ 1;
#X obj 165 443 / 100;
#X obj 224 443 / 100;
#X obj 128 507 -~;
#X obj 184 507 -~;
#X obj 108 548 wrap~;
#X obj 109 582 -~ 0.5;
#X obj 142 635 / 100;
#X obj 112 663 *~;
#X obj 170 712 +~;
#X obj 264 544 wrap~;
#X obj 265 578 -~ 0.5;
#X obj 298 631 / 100;
#X obj 268 659 *~;
#X obj 95 75 route x y aX aY run n, f 47;
#X obj 316 109 s run;
#X obj 260 116 int;
#X obj 313 160 nbx 5 14 -1e+37 1e+37 0 0 empty empty empty 0 -8 0 10
#fcfcfc #000000 #000000 0 256;
#X obj 179 108 int;
#X obj 179 148 s aX;
#X obj 232 152 nbx 5 14 -1e+37 1e+37 0 0 empty empty empty 0 -8 0 10
#fcfcfc #000000 #000000 0 256;
#X obj 262 171 s aY;
#X obj 162 405 r aX;
#X obj 221 406 r aY;
#X obj 350 516 r aX;
#X obj 362 568 nbx 5 14 -1e+37 1e+37 0 0 empty empty empty 0 -8 0 10
#fcfcfc #000000 #000000 0 256;
#X obj 190 595 nbx 5 14 -1e+37 1e+37 0 0 empty empty empty 0 -8 0 10
#fcfcfc #000000 #000000 0 256;
#X obj 178 543 r aY;
#X obj 303 715 + 550;
#X obj 311 758 nbx 5 14 -1e+37 1e+37 0 0 empty empty empty 0 -8 0 10
#fcfcfc #000000 #000000 0 256;
#X obj 354 673 * 100;
#X obj 348 542 / 2;
#X obj 176 569 / 2;
#X obj 146 348 s index;
#X obj 356 633 r index;
#X obj 25 159 r run;
#X obj 132 271 s off;
#X obj -15 365 r off;
#X obj 169 470 r off;
#X obj 231 477 r off;
#X obj 163 666 r off;
#X obj 303 661 r off;
#X obj 208 717 r off;
#X obj 117 243 0;
#X obj 84 213 bng 15 250 50 0 empty empty empty 17 7 0 10 #fcfcfc #000000
#000000;
#X msg 479 231 \; seq bounds 0 46 8 72;
#X connect 0 0 2 0;
#X connect 2 0 1 0;
#X connect 2 0 41 0;
#X connect 5 0 4 0;
#X connect 5 0 8 0;
#X connect 6 0 3 0;
#X connect 6 0 7 0;
#X connect 12 0 14 0;
#X connect 14 0 26 0;
#X connect 16 0 15 0;
#X connect 17 0 15 1;
#X connect 19 0 20 0;
#X connect 20 0 22 0;
#X connect 21 0 12 0;
#X connect 22 0 23 0;
#X connect 22 0 24 0;
#X connect 23 0 22 1;
#X connect 24 0 21 0;
#X connect 24 0 60 0;
#X connect 26 0 30 0;
#X connect 26 0 31 0;
#X connect 27 1 13 0;
#X connect 27 1 13 1;
#X connect 28 0 30 1;
#X connect 29 0 31 1;
#X connect 30 0 32 0;
#X connect 31 0 37 0;
#X connect 32 0 33 0;
#X connect 33 0 35 0;
#X connect 34 0 35 1;
#X connect 35 0 36 0;
#X connect 36 0 27 0;
#X connect 37 0 38 0;
#X connect 38 0 40 0;
#X connect 39 0 40 1;
#X connect 40 0 36 1;
#X connect 41 0 5 0;
#X connect 41 1 6 0;
#X connect 41 2 45 0;
#X connect 41 3 43 0;
#X connect 41 4 42 0;
#X connect 41 5 11 0;
#X connect 41 5 10 0;
#X connect 43 0 44 0;
#X connect 43 0 48 0;
#X connect 45 0 46 0;
#X connect 45 0 47 0;
#X connect 49 0 28 0;
#X connect 50 0 29 0;
#X connect 51 0 58 0;
#X connect 54 0 59 0;
#X connect 55 0 27 1;
#X connect 55 0 56 0;
#X connect 57 0 55 0;
#X connect 58 0 52 0;
#X connect 58 0 39 0;
#X connect 59 0 53 0;
#X connect 59 0 34 0;
#X connect 61 0 57 0;
#X connect 62 0 19 0;
#X connect 62 0 71 0;
#X connect 64 0 12 0;
#X connect 65 0 30 1;
#X connect 66 0 31 1;
#X connect 67 0 35 1;
#X connect 68 0 40 1;
#X connect 69 0 27 1;
#X connect 70 0 63 0;
#X connect 71 0 70 0;
#X coords 0 0 100 1 0 0 0;
